{"title":"The Rite 2011 PPVRIP XViD DTRG - SAFCuk009","uid":6308821,"size":1089383066,"categoryP":"video","categoryS":"movies","magnet":"?xt=urn:btih:b7af25edb004348e1f41d8464a8fdda28289a949&amp;dn=The+Rite+2011+PPVRIP+XViD+DTRG+-+SAFCuk009&amp;tr=udp%3A%2F%2Ftracker.openbittorrent.com%3A80&amp;tr=udp%3A%2F%2Fopen.demonii.com%3A1337&amp;tr=udp%3A%2F%2Ftracker.coppersurfer.tk%3A6969&amp;tr=udp%3A%2F%2Fexodus.desync.com%3A6969","seeders":0,"leechers":0,"uploader":"SAFCukO09","files":3,"time":1302456628,"description":"\n\n\nFormat                           : AVI\nFormat/Info                      : Audio Video Interleave\nFile size                        : 1.01 GiB\nDuration                         : 1h 51mn\nOverall bit rate                 : 1 298 Kbps\nWriting library                  : VirtualDub build 32839/release\n\nVideo\nID                               : 0\nFormat                           : MPEG-4 Visual\nFormat profile                   : Advanced Simple@L5\nFormat settings, BVOP            : Yes\nFormat settings, QPel            : No\nFormat settings, GMC             : No warppoints\nFormat settings, Matrix          : Custom\nCodec ID                         : XVID\nCodec ID/Hint                    : XviD\nDuration                         : 1h 51mn\nBit rate                         : 1 156 Kbps\nWidth                            : 720 pixels\nHeight                           : 480 pixels\nDisplay aspect ratio             : 3:2\nFrame rate                       : 29.970 fps\nStandard                         : NTSC\nColor space                      : YUV\nChroma subsampling               : 4:2:0\nBit depth                        : 8 bits\nScan type                        : Progressive\nBits/(Pixel*Frame)               : 0.112\nStream size                      : 926 MiB (89%)\nWriting library                  : XviD 1.2.1 (UTC 2008-12-04)\n\nAudio\nID                               : 1\nFormat                           : MPEG Audio\nFormat version                   : Version 1\nFormat profile                   : Layer 3\nMode                             : Joint stereo\nMode extension                   : MS Stereo\nCodec ID                         : 55\nCodec ID/Hint                    : MP3\nDuration                         : 1h 51mn\nBit rate mode                    : Constant\nBit rate                         : 128 Kbps\nChannel(s)                       : 2 channels\nSampling rate                    : 44.1 KHz\nStream size                      : 102 MiB (10%)\nAlignment                        : Aligned on interleaves\nInterleave, duration             : 26 ms (0.78 video frame)\nInterleave, preload duration     : 522 ms\nWriting library                  : LAME3.98.2\n\n\n\n &lt;a href=&quot;\nhttp://www.imdb.com/title/tt1161864/&quot; rel=&quot;nofollow&quot; target=&quot;_NEW&quot;&gt;\nhttp://www.imdb.com/title/tt1161864/&lt;/a&gt;\n\n\n\n\n\n\nUsers: 6.1/10 (5,291 votes) 79 reviews | Critics: 161 reviews Metascore: 38/100 (based on 33 reviews from Metacritic.com)\n\nAn American seminary student travels to Italy to take an exorcism course.\nDirector:\nMikael HÃƒÂ¥fstrÃƒÂ¶m\nWriters:\nMichael Petroni, Matt Baglio (book) (suggestion)\nStars:\nColin O'Donoghue, Anthony Hopkins and CiarÃƒÂ¡n \n\n\n\n\n\n\n\n &lt;a href=&quot;\nhttp://img39.imageshack.us/img39/9519/vlcsnap2011041015h37m31.png&quot; rel=&quot;nofollow&quot; target=&quot;_NEW&quot;&gt;\nhttp://img39.imageshack.us/img39/9519/vlcsnap2011041015h37m31.png&lt;/a&gt;\n &lt;a href=&quot;\nhttp://img717.imageshack.us/img717/9464/vlcsnap2011041015h55m54.png&quot; rel=&quot;nofollow&quot; target=&quot;_NEW&quot;&gt;\nhttp://img717.imageshack.us/img717/9464/vlcsnap2011041015h55m54.png&lt;/a&gt;\n &lt;a href=&quot;\nhttp://img156.imageshack.us/img156/6946/vlcsnap2011041015h37m00.png&quot; rel=&quot;nofollow&quot; target=&quot;_NEW&quot;&gt;\nhttp://img156.imageshack.us/img156/6946/vlcsnap2011041015h37m00.png&lt;/a&gt;\n\n\nSource used \n\nIFLiX ...................... Thanks \n\nDeinterlaced ,slight rgb colour change used the levels filter and slightest smoother \n\nEnjoy \n\n\n\n\nGreetz to Imagine ,Flawl3ss,DiLLoN,BDK,NOiR,TOXiCiNK,THC,Ez,Rx,Boobyblue\n\n\n\n\n\n","torrent":{"xt":"urn:btih:b7af25edb004348e1f41d8464a8fdda28289a949","amp;dn":"The+Rite+2011+PPVRIP+XViD+DTRG+-+SAFCuk009","amp;tr":["udp%3A%2F%2Ftracker.openbittorrent.com%3A80","udp%3A%2F%2Fopen.demonii.com%3A1337","udp%3A%2F%2Ftracker.coppersurfer.tk%3A6969","udp%3A%2F%2Fexodus.desync.com%3A6969"],"infoHash":"b7af25edb004348e1f41d8464a8fdda28289a949","infoHashBuffer":{"type":"Buffer","data":[183,175,37,237,176,4,52,142,31,65,216,70,74,143,221,162,130,137,169,73]},"announce":[],"urlList":[]}}